<svg width="1920" height="957" viewBox="0 0 1920 957" fill="none" xmlns="http://www.w3.org/2000/svg">
<g clip-path="url(#clip0_160_92)">
<mask id="mask0_160_92" style="mask-type:luminance" maskUnits="userSpaceOnUse" x="-1" y="1" width="1921" height="1141">
<path d="M1919.96 696.104H1719.67L1538.47 530.222H1677.91V522.111H1529.59L1348.43 356.27H1500.23V348.158H1339.55L1158.38 182.317H1294.95V174.206H1149.5L960.577 1.26691L957.897 4.26827L955.217 1.26691L953.417 2.92979L952.817 2.60538L951.897 4.30875L766.293 174.206H621.009V182.317H757.412L576.248 348.158H378.804V356.27H567.368L386.204 522.111H200.999V530.222H377.204L195.999 696.104H-0.00524902V704.216H187.239L59.2361 821.306L64.5963 827.349L199.119 704.216H575.688L375.243 1077.35L382.244 1081.4L585.008 704.216H954.017V1141.27H962.017V704.216H1329.47L1532.03 1081.08L1539.03 1077.02L1338.59 703.891H1716.71L1851.24 827.025L1856.6 820.982L1728.6 703.891H1920L1919.96 696.104ZM940.337 25.8451L860.615 174.206H778.253L940.337 25.8451ZM769.373 182.317H856.255L767.133 348.158H588.208L769.373 182.317ZM579.328 356.27H762.773L673.651 522.111H398.164L579.328 356.27ZM580.128 696.104H208.12L389.324 530.222H669.33L580.128 696.104ZM953.897 696.104H589.249L678.371 530.222H953.897V696.104ZM953.897 522.111H682.731L771.853 356.27H953.897V522.111ZM953.897 348.158H776.213L865.375 182.317H953.897V348.158ZM953.897 174.206H869.895L953.897 17.5712V174.206ZM1517.63 522.111H1240.58L1151.46 356.27H1336.47L1517.63 522.111ZM1327.59 348.158H1147.1L1057.98 182.317H1146.42L1327.59 348.158ZM1137.54 174.206H1053.54L972.297 23.0466L1137.54 174.206ZM961.897 20.4914L1044.5 174.206H961.897V20.4914ZM961.897 182.317H1049.02L1138.18 348.158H962.177L961.897 182.317ZM961.897 356.27H1142.38L1231.5 522.111H961.897V356.27ZM961.897 696.104V530.222H1235.86L1325.03 696.104H961.897ZM1333.91 696.104L1245.02 530.222H1526.59L1707.79 696.104H1333.91Z" fill="white"/>
</mask>
<g mask="url(#mask0_160_92)">
<path d="M2004.98 -1192.03H-170.942V1250.86H2004.98V-1192.03Z" fill="url(#paint0_radial_160_92)"/>
</g>
</g>
<defs>
<radialGradient id="paint0_radial_160_92" cx="0" cy="0" r="1" gradientUnits="userSpaceOnUse" gradientTransform="translate(962.049 356.703) rotate(-33.5987) scale(317.843 321.149)">
<stop stop-color="#8A8A8A"/>
<stop offset="1" stop-color="#0F0D13"/>
</radialGradient>
<clipPath id="clip0_160_92">
<rect width="1920" height="1149" fill="white" transform="translate(0 0.817627)"/>
</clipPath>
</defs>
</svg>
