<svg width="770" height="839" viewBox="0 0 770 839" fill="none" xmlns="http://www.w3.org/2000/svg">
<g clip-path="url(#clip0_159_81)">
<mask id="mask0_159_81" style="mask-type:luminance" maskUnits="userSpaceOnUse" x="232" y="268" width="306" height="304">
<path d="M385 268.005C354.933 268.005 325.541 276.917 300.542 293.614C275.542 310.311 256.057 334.043 244.551 361.809C233.045 389.575 230.034 420.129 235.9 449.605C241.766 479.081 256.244 506.157 277.505 527.408C298.765 548.66 325.853 563.132 355.342 568.995C384.831 574.858 415.398 571.849 443.176 560.348C470.954 548.847 494.697 529.37 511.401 504.382C528.105 479.393 537.021 450.014 537.021 419.96C536.973 379.674 520.942 341.051 492.443 312.564C463.943 284.077 425.304 268.053 385 268.005ZM385 562.923C356.712 562.923 329.06 554.539 305.539 538.83C282.019 523.121 263.687 500.793 252.861 474.67C242.036 448.547 239.204 419.801 244.722 392.069C250.241 364.337 263.863 338.863 283.866 318.869C303.868 298.876 329.353 285.26 357.097 279.743C384.841 274.227 413.599 277.058 439.734 287.879C465.868 298.699 488.206 317.023 503.922 340.534C519.637 364.044 528.026 391.684 528.026 419.96C527.983 457.863 512.9 494.202 486.087 521.003C459.274 547.805 422.92 562.881 385 562.923Z" fill="white"/>
</mask>
<g mask="url(#mask0_159_81)">
<path d="M917.523 941.462H-61.1682V-133.911H917.523V941.462Z" fill="url(#paint0_radial_159_81)"/>
</g>
<mask id="mask1_159_81" style="mask-type:luminance" maskUnits="userSpaceOnUse" x="0" y="1" width="770" height="838">
<path d="M731.392 430.048C730.636 431.451 729.845 432.836 729.071 434.238C729.737 435.695 730.385 437.134 731.032 438.59C768.813 523.685 767.949 601.712 728.657 658.304C693.396 709.088 631.13 736.925 551.503 738.076C505.196 802.814 446.816 838.043 384.982 838.043C318.938 838.043 256.817 797.797 209.141 724.427C121.725 719.842 55.771 686.106 22.7582 629.01C-11.694 569.361 -6.0269 491.532 38.6079 409.872C39.3635 408.469 40.1551 407.084 40.9287 405.682C40.2631 404.225 39.6154 402.786 38.9677 401.33C1.18735 316.235 2.0509 238.208 41.3425 181.616C76.6042 130.832 138.852 102.995 218.442 101.826C264.75 37.0875 323.148 1.84113 384.982 1.84113C451.044 1.84113 513.165 42.0867 560.859 115.493C648.275 120.078 714.211 153.724 747.242 210.91C781.694 270.559 776.063 348.388 731.392 430.048ZM721.281 653.179C758.468 599.608 759.242 525.303 723.494 443.823C699.045 484.698 666.176 523.883 626.794 559.561C614.345 617.25 594.087 670.137 566.922 714.735C563.959 719.602 560.961 724.337 557.926 728.941C631.364 726.477 688.682 700.115 721.281 653.179ZM137.61 419.96C137.542 461.406 141.397 502.765 149.124 543.484C178.175 572.961 209.936 599.64 243.989 623.166C284.375 651.339 327.831 674.837 373.522 693.209C420.689 678.728 466.049 658.915 508.722 634.153C547.937 611.635 584.714 585.119 618.465 555.029C627.768 510.634 632.411 465.39 632.318 420.032C632.386 378.586 628.531 337.227 620.804 296.508C591.778 267.011 560.04 240.309 526.011 216.754C485.551 188.51 441.995 164.98 396.19 146.621C349.121 161.142 303.854 180.961 261.26 205.695C221.985 228.276 185.17 254.884 151.409 285.089C142.137 329.445 137.512 374.646 137.61 419.96ZM140.039 295.663C103.032 330.675 72.9521 368.259 51.0574 406.149C71.5668 449.596 101.089 492.125 137.79 531.597C124.843 453.417 125.604 373.582 140.039 295.663ZM641.349 419.96C641.419 461.737 637.576 503.43 629.871 544.491C666.248 510.144 696.436 472.704 718.961 433.843C698.451 390.378 668.911 347.813 632.174 308.323C638.334 345.215 641.403 382.557 641.349 419.96ZM546.79 729.139C576.726 686.25 600.384 631.708 615.154 569.829C548.187 627.038 470.743 670.706 387.123 698.406C433.521 715.526 479.883 725.794 524.122 728.455C531.666 728.899 539.072 729.127 546.34 729.139H546.79ZM385 829.051C443.793 829.051 497.873 794.884 540.367 738.076C534.862 737.986 529.267 737.771 523.618 737.429C475.043 734.534 424.058 722.629 373.27 702.722C321.007 718.331 269.176 725.974 220.565 724.859H220.242C263.977 789.633 321.745 829.051 385 829.051ZM214.215 715.652C219.336 715.844 224.517 715.945 229.759 715.957C270.435 715.957 314.405 709.717 359.615 697.201C317.165 679.214 276.702 656.861 238.88 630.503C208.142 609.246 179.227 585.468 152.435 559.417C165.514 619.192 186.905 672.529 214.197 715.652H214.215ZM30.5841 624.515C62.1937 679.254 125.233 709.538 203.294 715.04L203.114 714.735C174.024 667.098 152.921 609.985 140.705 547.638C100.622 506.421 68.2205 461.608 45.6962 415.644C5.09133 490.686 -3.18438 566.124 30.5841 624.515ZM48.7546 186.741C11.532 240.312 10.7944 314.617 46.5058 396.097C70.9371 355.24 103.788 316.073 143.134 280.413C155.601 222.688 175.859 169.765 203.042 125.149C205.993 120.294 208.991 115.577 212.038 110.997C141.083 113.479 82.2353 138.457 48.7187 186.741H48.7546ZM154.9 270.145C186.59 242.98 220.753 218.838 256.943 198.034C296.845 174.895 339.051 155.977 382.877 141.586C327.106 121.031 272.54 110.691 223.264 110.799C193.202 153.706 169.562 208.248 154.72 270.145H154.9ZM385.18 10.8326C326.368 10.8326 272.289 44.9999 229.813 101.826C235.33 101.934 240.925 102.155 246.598 102.491C295.173 105.386 346.14 117.291 396.928 137.198C445.826 122.578 494.347 114.953 540.205 114.953C543.372 114.953 546.52 114.989 549.65 115.061H549.956C505.987 50.269 448.219 10.8326 385 10.8326H385.18ZM555.983 124.268C553.806 124.178 551.629 124.106 549.435 124.052C505.142 123.01 458.06 129.447 410.403 142.647C452.929 160.636 493.46 183.014 531.336 209.417C562.043 230.665 590.928 254.43 617.691 280.467C604.486 220.71 583.059 167.391 555.785 124.268H555.983ZM739.416 215.405C708.832 162.338 647.826 130.526 566.706 124.862L566.886 125.149C595.904 172.786 617.043 229.899 629.223 292.21C669.324 333.427 701.725 378.258 724.268 424.24C766.672 345.979 772.069 271.871 739.416 215.405Z" fill="white"/>
</mask>
<g mask="url(#mask1_159_81)">
<path d="M917.523 941.462H-61.1683V-133.911H917.523V941.462Z" fill="url(#paint1_radial_159_81)"/>
</g>
</g>
<defs>
<radialGradient id="paint0_radial_159_81" cx="0" cy="0" r="1" gradientUnits="userSpaceOnUse" gradientTransform="translate(389.5 406.96) rotate(-0.237168) scale(769.321 768.986)">
<stop stop-color="white"/>
<stop offset="0.376667" stop-color="#0F0D13"/>
</radialGradient>
<radialGradient id="paint1_radial_159_81" cx="0" cy="0" r="1" gradientUnits="userSpaceOnUse" gradientTransform="translate(396 413.46) rotate(0.185902) scale(770.504 770.169)">
<stop stop-color="white"/>
<stop offset="0.595265" stop-color="#0F0D13"/>
</radialGradient>
<clipPath id="clip0_159_81">
<rect width="770" height="838" fill="white" transform="matrix(1 0 0 -1 0 838.96)"/>
</clipPath>
</defs>
</svg>
