<svg width="41" height="42" viewBox="0 0 41 42" fill="none" xmlns="http://www.w3.org/2000/svg">
<path fill-rule="evenodd" clip-rule="evenodd" d="M20.5577 41.8333C31.3998 41.8333 40.1891 32.5059 40.1891 21C40.1891 9.49407 31.3998 0.166672 20.5577 0.166672C9.71555 0.166672 0.92627 9.49407 0.92627 21C0.92627 32.5059 9.71555 41.8333 20.5577 41.8333ZM27.1618 25.1143C27.3234 23.8054 27.4102 22.4267 27.4102 21C27.4102 19.5734 27.3234 18.1946 27.1618 16.8857C26.196 16.1049 25.1403 15.3567 24.0057 14.6615C22.8525 13.9549 21.6952 13.3507 20.5574 12.8486C19.4196 13.3507 18.2623 13.9549 17.109 14.6615C15.9747 15.3565 14.9191 16.1047 13.9535 16.8853C13.7919 18.1943 13.7051 19.5732 13.7051 21C13.7051 22.4268 13.7919 23.8057 13.9535 25.1148C14.9191 25.8954 15.9746 26.6434 17.109 27.3384C18.2622 28.0451 19.4195 28.6493 20.5574 29.1514C21.6953 28.6493 22.8525 28.0451 24.0058 27.3384C25.1404 26.6433 26.196 25.8951 27.1618 25.1143ZM28.4102 21C28.4102 19.9158 28.3614 18.8558 28.2683 17.8293C29.4141 18.8605 30.4045 19.932 31.2159 21C30.4045 22.0681 29.4141 23.1395 28.2683 24.1708C28.3614 23.1443 28.4102 22.0842 28.4102 21ZM28.1041 16.3766C29.5524 17.586 30.8022 18.871 31.8132 20.1667C31.9253 20.0003 32.0329 19.8343 32.1358 19.6688C33.8157 16.9688 34.1189 14.6837 33.3058 13.1891C32.4927 11.6945 30.4762 10.8306 27.4329 11.0245C27.2465 11.0363 27.0573 11.0522 26.8656 11.072C27.4175 12.6492 27.8413 14.4405 28.1041 16.3766ZM28.1041 25.6235C29.5524 24.414 30.8022 23.1291 31.8132 21.8334C31.9253 21.9997 32.0328 22.1657 32.1358 22.3311C33.8156 25.0311 34.1188 27.3163 33.3057 28.8109C32.4926 30.3055 30.4761 31.1694 27.4329 30.9755C27.2464 30.9636 27.0573 30.9478 26.8656 30.9279C27.4175 29.3508 27.8413 27.5595 28.1041 25.6235ZM34.1584 29.3333C32.973 31.5122 30.0906 32.3506 26.4937 31.9111C25.0539 35.4367 22.9285 37.6667 20.5576 37.6667C18.1868 37.6667 16.0614 35.4367 14.6215 31.911C11.0244 32.3506 8.14182 31.5123 6.95639 29.3333C5.77098 27.1544 6.52805 24.0861 8.68525 21C6.528 17.9139 5.77089 14.8456 6.95631 12.6667C8.14176 10.4877 11.0244 9.64933 14.6216 10.089C16.0614 6.56332 18.1868 4.33334 20.5576 4.33334C22.9284 4.33334 25.0539 6.5633 26.4937 10.0889C30.0906 9.6494 32.9731 10.4878 34.1585 12.6667C35.3439 14.8456 34.5868 17.9139 32.4295 21C34.5867 24.0861 35.3438 27.1544 34.1584 29.3333ZM26.9523 26.5373C26.686 28.0881 26.3121 29.5195 25.8533 30.7901C24.5854 30.5774 23.2273 30.2048 21.825 29.6719C22.7093 29.2442 23.5988 28.759 24.4837 28.2169C25.3506 27.6857 26.1752 27.1231 26.9523 26.5373ZM25.4752 31.7559C23.9208 31.4735 22.2577 30.9691 20.5574 30.2474C18.8573 30.9691 17.1943 31.4734 15.64 31.7558C15.7276 31.9621 15.8175 32.1632 15.9097 32.3589C17.2917 35.2922 19.0034 36.6667 20.5576 36.6667C22.1118 36.6667 23.8236 35.2922 25.2056 32.3589C25.2978 32.1633 25.3877 31.9622 25.4752 31.7559ZM16.6311 28.2169C17.5159 28.759 18.4055 29.2442 19.2898 29.6719C17.8876 30.2047 16.5297 30.5773 15.2619 30.79C14.8031 29.5196 14.4293 28.0883 14.1631 26.5377C14.94 27.1234 15.7644 27.6858 16.6311 28.2169ZM14.2496 30.9279C13.6978 29.3509 13.274 27.5598 13.0112 25.6239C11.5627 24.4144 10.3127 23.1293 9.30159 21.8334C9.18951 21.9997 9.08196 22.1657 8.97903 22.3311C7.2992 25.0311 6.99594 27.3163 7.80907 28.8109C8.62219 30.3055 10.6387 31.1694 13.6819 30.9755C13.8685 30.9636 14.0578 30.9478 14.2496 30.9279ZM9.89892 21C10.7104 22.0683 11.701 23.1398 12.847 24.1712C12.7539 23.1446 12.7051 22.0844 12.7051 21C12.7051 19.9156 12.7539 18.8554 12.847 17.8288C11.701 18.8602 10.7104 19.9318 9.89892 21ZM13.0112 16.3761C11.5627 17.5857 10.3127 18.8708 9.30158 20.1667C9.18948 20.0003 9.08191 19.8343 8.97896 19.6688C7.29913 16.9688 6.99587 14.6837 7.80899 13.1891C8.62212 11.6945 10.6386 10.8306 13.6819 11.0245C13.8684 11.0363 14.0578 11.0522 14.2496 11.0721C13.6978 12.6491 13.274 14.4403 13.0112 16.3761ZM14.1631 15.4623C14.4293 13.9117 14.8032 12.4804 15.2619 11.21C16.5297 11.4226 17.8876 11.7953 19.2898 12.3281C18.4055 12.7557 17.516 13.241 16.6311 13.7831C15.7644 14.3142 14.94 14.8766 14.1631 15.4623ZM25.8533 11.2099C24.5854 11.4226 23.2273 11.7952 21.825 12.3281C22.7093 12.7557 23.5988 13.241 24.4836 13.7831C25.3506 14.3143 26.1752 14.8769 26.9523 15.4627C26.686 13.9119 26.3121 12.4805 25.8533 11.2099ZM15.6401 10.2442C17.1943 10.5266 18.8573 11.0309 20.5574 11.7526C22.2577 11.0309 23.9208 10.5265 25.4752 10.2441C25.3877 10.0378 25.2978 9.83674 25.2056 9.64111C23.8236 6.70778 22.1118 5.33334 20.5576 5.33334C19.0034 5.33334 17.2917 6.70778 15.9097 9.64111C15.8175 9.83677 15.7276 10.0379 15.6401 10.2442ZM22.5208 21C22.5208 22.1506 21.6418 23.0833 20.5576 23.0833C19.4734 23.0833 18.5945 22.1506 18.5945 21C18.5945 19.8494 19.4734 18.9167 20.5576 18.9167C21.6418 18.9167 22.5208 19.8494 22.5208 21Z" fill="#F2F4F9"/>
</svg>
