<svg xmlns="http://www.w3.org/2000/svg" xmlns:xlink="http://www.w3.org/1999/xlink" width="0" height="0"
     style="position:absolute">
    <symbol id="message" viewBox="0 0 36 36">
        <path fill-rule="evenodd" clip-rule="evenodd" d="M7.64987 16.6099C14.0923 13.7874 18.3883 11.9267 20.5378 11.0277C26.675 8.46077 27.9503 8.01488 28.7815 8.00016C28.9643 7.99692 29.3731 8.04248 29.6379 8.25852C29.8614 8.44094 29.9229 8.68737 29.9524 8.86033C29.9818 9.03328 30.0185 9.42728 29.9893 9.73514C29.6568 13.249 28.2177 21.7762 27.4856 25.7118C27.1758 27.3771 26.5658 27.9354 25.9753 27.9901C24.6919 28.1088 23.7174 27.1372 22.4744 26.3179C20.5294 25.0358 19.4305 24.2377 17.5425 22.9867C15.3606 21.5408 16.7751 20.7462 18.0185 19.4475C18.344 19.1076 23.9985 13.9358 24.1079 13.4667C24.1216 13.408 24.1343 13.1893 24.0051 13.0738C23.8759 12.9583 23.6851 12.9978 23.5475 13.0292C23.3524 13.0737 20.2452 15.1389 14.2258 19.2247C13.3439 19.8337 12.545 20.1304 11.8292 20.1149C11.0402 20.0977 9.52233 19.6663 8.39397 19.2974C7.00999 18.8451 5.91003 18.6059 6.00581 17.8376C6.0557 17.4374 6.60372 17.0282 7.64987 16.6099Z" stroke="transparent"/>
    </symbol>
    <symbol id="telegram" viewBox="0 0 37 37">
        <path  stroke="transparent" d="M6.42485 17.027C13.941 13.6401 18.953 11.4072 21.4607 10.3284C28.6209 7.24812 30.1087 6.71305 31.0784 6.69538C31.2917 6.69149 31.7686 6.74616 32.0775 7.00541C32.3383 7.22432 32.4101 7.52003 32.4444 7.72758C32.4788 7.93513 32.5215 8.40793 32.4876 8.77736C32.0995 12.994 30.4206 23.2266 29.5665 27.9493C29.2051 29.9477 28.4934 30.6177 27.8045 30.6833C26.3072 30.8258 25.1703 29.6599 23.7201 28.6767C21.4509 27.1382 20.169 26.1805 17.9663 24.6792C15.4207 22.9442 17.0709 21.9906 18.5216 20.4322C18.9013 20.0243 25.4982 13.8182 25.6259 13.2552C25.6419 13.1848 25.6567 12.9223 25.5059 12.7837C25.3552 12.6452 25.1327 12.6925 24.9721 12.7302C24.7445 12.7837 21.1194 15.2619 14.0968 20.1649C13.0678 20.8957 12.1358 21.2517 11.3008 21.2331C10.3802 21.2125 8.60939 20.6947 7.29297 20.2521C5.67832 19.7093 4.39504 19.4223 4.50678 18.5003C4.56499 18.0201 5.20434 17.529 6.42485 17.027Z"/>
    </symbol>
    <symbol id="user" viewBox="0 0 36 36">
        <g stroke="transparent">
            <path d="M27.7555 27.2169C28.3451 27.094 28.6962 26.478 28.4164 25.9446C27.6659 24.5139 26.438 23.2568 24.8485 22.3082C22.8838 21.1356 20.4765 20.5 18 20.5C15.5235 20.5 13.1162 21.1356 11.1514 22.3082C9.56196 23.2568 8.33401 24.5139 7.58353 25.9446C7.30375 26.478 7.65483 27.094 8.24444 27.2169L9.8391 27.5492C15.2218 28.671 20.7781 28.671 26.1608 27.5492L27.7555 27.2169Z"/>
            <circle cx="18" cy="13" r="6.25"/>
        </g>
    </symbol>
    <symbol id="email" viewBox="0 0 36 36">
        <path fill-rule="evenodd" clip-rule="evenodd" d="M5.07596 11.0968C5.29801 11.1079 5.52099 11.1687 5.72846 11.284L18.5 18.3793L31.2715 11.284C31.479 11.1687 31.702 11.1079 31.924 11.0968C31.8282 10.1208 31.6115 9.46405 31.1213 8.97389C30.2426 8.09521 28.8284 8.09521 26 8.09521H11C8.17157 8.09521 6.75736 8.09521 5.87868 8.97389C5.38853 9.46405 5.1718 10.1208 5.07596 11.0968ZM32 14.3112L19.7141 21.1366C18.9591 21.5561 18.0409 21.5561 17.2859 21.1366L5 14.3112V23.0952C5 25.9236 5 27.3379 5.87868 28.2165C6.75736 29.0952 8.17157 29.0952 11 29.0952H26C28.8284 29.0952 30.2426 29.0952 31.1213 28.2165C32 27.3379 32 25.9236 32 23.0952V14.3112Z" stroke="transparent"/>
    </symbol>
    <symbol id="protection" viewBox="0 0 31 31">
        <g fill="transparent">
            <path d="M25.1489 9.75603L24.1567 9.63199L25.1489 9.75602C25.2595 8.87161 24.7715 8.02077 23.9522 7.66967L23.5583 8.58881L23.9522 7.66967L16.2878 4.38493C15.7847 4.16932 15.2153 4.16932 14.7122 4.38493L7.04778 7.66967C6.22855 8.02077 5.74051 8.87161 5.85106 9.75603L6.71405 16.6599C6.9342 18.4211 7.81517 20.0329 9.1787 21.1692L14.2196 25.37C14.9613 25.9881 16.0387 25.9881 16.7804 25.37L21.8213 21.1692C23.1848 20.0329 24.0658 18.4211 24.2859 16.6599L25.1489 9.75603Z" stroke-width="2" stroke-linecap="round"/>
            <path d="M11.75 15.1353L15.0687 18.454C15.2918 18.6771 15.6633 18.6403 15.8383 18.3778L20.5 11.3853" stroke-width="2" stroke-linecap="round"/>
        </g>
    </symbol>
    <symbol id="filter" viewBox="0 0 31 31">
        <g fill="transparent">
            <path d="M15.5 24.3853L5.5 24.3853" stroke-width="2" stroke-linecap="round"/>
            <path d="M25.5 6.88525L23 6.88525" stroke-width="2" stroke-linecap="round"/>
            <path d="M25.5 24.3853L20.5 24.3853" stroke-width="2" stroke-linecap="round"/>
            <path d="M15.5 6.88525L5.5 6.88525" stroke-width="2" stroke-linecap="round"/>
            <path d="M9.25 15.6353L5.5 15.6353" stroke-width="2" stroke-linecap="round"/>
            <path d="M25.5 15.6353L15.5 15.6353" stroke-width="2" stroke-linecap="round"/>
            <circle cx="18" cy="24.3853" r="2.5" transform="rotate(-90 18 24.3853)" stroke-width="2" stroke-linecap="round"/>
            <circle cx="11.75" cy="15.6353" r="2.5" transform="rotate(-90 11.75 15.6353)" stroke-width="2" stroke-linecap="round"/>
            <circle cx="19.25" cy="6.88525" r="2.5" transform="rotate(-90 19.25 6.88525)" stroke-width="2" stroke-linecap="round"/>
        </g>
    </symbol>
    <symbol id="chart-alt" viewBox="0 0 31 31">
        <g fill="transparent">
            <path d="M21.75 11.3853L17.7058 17.4515C17.2799 18.0903 16.3228 18.0308 15.9794 17.344L15.0206 15.4265C14.6772 14.7398 13.7201 14.6802 13.2942 15.319L9.25 21.3853" stroke-width="2" stroke-linecap="round" stroke-linejoin="round"/>
            <rect x="4.25" y="3.88525" width="22.5" height="22.5" rx="2" stroke-width="2"/>
        </g>
    </symbol>
    <symbol id="done-round" viewBox="0 0 25 24">
        <path d="M5.5 14L8.73309 16.4248C9.16178 16.7463 9.76772 16.6728 10.107 16.2581L18.5 6" stroke-width="2" stroke-linecap="round" fill="transparent"/>
    </symbol>
    <symbol id="info" viewBox="0 0 24 24">
        <g fill="transparent">
            <circle cx="12" cy="12" r="9" stroke-width="2"/>
            <path d="M12 17V10" stroke-width="2"/>
        </g>
        <path d="M12.5 7.5C12.5 7.77614 12.2761 8 12 8C11.7239 8 11.5 7.77614 11.5 7.5C11.5 7.22386 11.7239 7 12 7C12.2761 7 12.5 7.22386 12.5 7.5Z"/>
    </symbol>
    <symbol id="info-full" viewBox="0 0 24 24">
        <path stroke="transparent" d="M12,0C5.4,0,0,5.4,0,12s5.4,12,12,12s12-5.4,12-12S18.6,0,12,0z M14,18c0,1.1-0.9,2-2,2s-2-0.9-2-2v-6.7
	c0-1.1,0.9-2,2-2s2,0.9,2,2V18z M12,8c-1.1,0-2-0.9-2-2s0.9-2,2-2s2,0.9,2,2S13.1,8,12,8z"/>
    </symbol>
    <symbol id="copy" viewBox="0 0 41 41">
        <g fill="transparent">
            <path d="M23.9166 11.9585V10.8335C23.9166 8.94788 23.9166 8.00507 23.3308 7.41928C22.745 6.8335 21.8022 6.8335 19.9166 6.8335H10.8333C8.94763 6.8335 8.00482 6.8335 7.41904 7.41928C6.83325 8.00507 6.83325 8.94788 6.83325 10.8335V19.9168C6.83325 21.8024 6.83325 22.7453 7.41904 23.331C8.00482 23.9168 8.94763 23.9168 10.8333 23.9168H11.9583" stroke-width="2"/>
            <rect x="17.0833" y="17.0835" width="17.0833" height="17.0833" rx="2" stroke-width="2"/>
        </g>
    </symbol>
</svg>

