<svg width="37" height="37" viewBox="0 0 37 37"  xmlns="http://www.w3.org/2000/svg">
<path d="M6.42485 17.027C13.941 13.6401 18.953 11.4072 21.4607 10.3284C28.6209 7.24812 30.1087 6.71305 31.0784 6.69538C31.2917 6.69149 31.7686 6.74616 32.0775 7.00541C32.3383 7.22432 32.4101 7.52003 32.4444 7.72758C32.4788 7.93513 32.5215 8.40793 32.4876 8.77736C32.0995 12.994 30.4206 23.2266 29.5665 27.9493C29.2051 29.9477 28.4934 30.6177 27.8045 30.6833C26.3072 30.8258 25.1703 29.6599 23.7201 28.6767C21.4509 27.1382 20.169 26.1805 17.9663 24.6792C15.4207 22.9442 17.0709 21.9906 18.5216 20.4322C18.9013 20.0243 25.4982 13.8182 25.6259 13.2552C25.6419 13.1848 25.6567 12.9223 25.5059 12.7837C25.3552 12.6452 25.1327 12.6925 24.9721 12.7302C24.7445 12.7837 21.1194 15.2619 14.0968 20.1649C13.0678 20.8957 12.1358 21.2517 11.3008 21.2331C10.3802 21.2125 8.60939 20.6947 7.29297 20.2521C5.67832 19.7093 4.39504 19.4223 4.50678 18.5003C4.56499 18.0201 5.20434 17.529 6.42485 17.027Z" />
</svg>
